<?xml version="1.0" encoding="utf-8"?>
<!-- Generator: Adobe Illustrator 19.2.1, SVG Export Plug-In . SVG Version: 6.00 Build 0)  -->
<svg version="1.1" id="Layer_1" xmlns="http://www.w3.org/2000/svg" xmlns:xlink="http://www.w3.org/1999/xlink" x="0px" y="0px"
	 viewBox="0 0 360 360" style="enable-background:new 0 0 360 360;" xml:space="preserve">
<style type="text/css">
	.st0{fill:#515050;}
	.st1{fill:#542C04;}
</style>
<path d="M262.7,142.9c-0.3-1.2-1.4-2.1-2.7-2.1c-0.7,0-1.5,0-2.2,0h-1.1c-1.9,0-3.8,0-5.6-0.3c-1.4-0.3-2.8-0.7-4.3-1.2
	c-1.2-0.4-2.5-0.8-3.7-1.1c-4.6-1-9.6-1.5-15.2-1.5c-0.4,0-0.9,0-1.3,0c-7.9,0.1-18.2,0.8-27.5,5.3c-4,1.9-9.1,3.1-14,3.3H185
	c-0.2,0-0.5,0-0.8,0c-0.7,0-1.5-0.1-2.2,0c-0.8-0.1-1.6,0-2.2,0c-0.3,0-0.6,0-0.8,0h-0.1c-4.9-0.2-10-1.4-14-3.3
	c-9.2-4.5-19.5-5.2-27.4-5.3c-0.4,0-0.9,0-1.3,0c-5.6,0-10.6,0.5-15.2,1.5c-1.3,0.3-2.5,0.7-3.7,1.1c-1.5,0.5-2.9,0.9-4.3,1.2
	c-1.8,0.3-3.7,0.3-5.6,0.3h-1.1c-0.7,0-1.5,0-2.2,0c-1.3,0-2.5,0.9-2.7,2.1v13.3v0.2c0.3,1.5,1.7,2.3,3,2.4c0.2,0,0.4,0,0.6,0
	c0,0.5,0.1,1.3,0.1,2.8v0.2c0,10.1,3.2,22.4,12.3,26.5c4.6,2.1,10,2.4,14.6,2.5c0.5,0,1,0,1.6,0c12,0,21-2.1,27.4-6.4
	c3.8-2.5,7-5.9,9.6-10.1c1-1.6,1.8-3.6,2.6-5.6c1.9-4.9,3.8-9.5,8.9-10c5.2,0.6,7,5.2,9,10c0.8,1.9,1.6,3.9,2.6,5.6
	c2.6,4.2,5.9,7.6,9.6,10.1c6.5,4.3,15.4,6.4,27.4,6.4c0.5,0,1.1,0,1.6,0c4.6-0.1,9.9-0.4,14.6-2.5c9.2-4.1,12.4-16.4,12.3-26.5v-0.2
	c0-1.5,0-2.4,0.1-2.8c0.2,0,0.4,0,0.6,0c1.3-0.1,2.7-0.9,3-2.4V143L262.7,142.9z M104.5,151.1v-5.8h5.8L104.5,151.1z M169.1,161.3
	c-1,3.4-2.2,6.6-3.7,9.7c-2.4,4.9-6,8.6-10.5,10.7c-3.8,1.8-8.3,2.9-14.2,3.4c-2.4,0.2-4.6,0.3-6.7,0.3l0,0c-3.1,0-5.9-0.2-8.5-0.7
	h-0.1c-2.6-0.5-5.4-1-7.5-2.4c-2.5-1.7-3.9-5-4.8-7.8c-0.8-2.5-1.7-5.3-2-8.2c-0.4-3.8-0.6-8.1,0.5-12.1c2.9-10,17.5-11.9,26-12.1
	c0.6,0,1.2,0,1.7,0c6.2,0,12.5,1,18.9,3c1.3,0.4,3,1,4.6,1.7l0.3,0.1c0.6,0.3,1.3,0.6,1.8,0.9c2.3,1.6,4.1,3,5.3,5.2
	C170.6,155.6,169.9,158.6,169.1,161.3z M252.6,166.3c-0.3,2.9-1.2,5.8-2,8.2c-0.9,2.7-2.3,6.1-4.8,7.8c-2.1,1.4-4.9,1.9-7.5,2.4
	h-0.1c-4.3,0.8-9,0.9-15.1,0.4c-5.9-0.5-10.4-1.6-14.2-3.4c-4.5-2.1-8.1-5.8-10.5-10.7c-1.5-3.1-2.8-6.3-3.7-9.7
	c-0.8-2.7-1.5-5.8-1.1-8.4c1.2-2.2,3-3.6,5.3-5.2c0.5-0.3,1.1-0.6,1.8-0.9l0.3-0.1c1.6-0.7,3.3-1.3,4.6-1.7c7-2.2,13.9-3.2,20.6-3
	c8.5,0.3,23.1,2.2,26,12.1C253.2,158.2,252.9,162.6,252.6,166.3z M259.3,151.1l-5.8-5.8h5.8V151.1z"/>
<g>
	<path class="st0" d="M86,318.4c-15.6,2.2-33.2,4-45.2,11c-6.7,3.9-10.8,9-13,14.5c-1.6,3.9-2.2,7.7-2.2,11.7c0,1.8,0,3.6,0,5.4
		h152.6c-24.5-12.2-43.2-30.2-58.5-49.4c-2.6,0.9-5.4,1.8-8.3,2.4C103.1,316,94.6,317.2,86,318.4z"/>
	<path class="st0" d="M275.2,318.4c15.6,2.2,33.2,4,45.2,11c6.7,3.9,10.8,9,13,14.5c1.6,3.9,2.2,7.7,2.2,11.7c0,1.8,0,3.6,0,5.4
		H183.1c24.5-12.2,43.2-30.2,58.5-49.4c2.6,0.9,5.4,1.8,8.3,2.4C258.1,316,266.7,317.2,275.2,318.4z"/>
</g>
<path class="st1" d="M312.1,265.3c-4-7.2-7.8-14.7-7.3-23.2c0.1-1.4,0.3-2.8,0.5-4.3c1.7-3.4,3.5-6.8,5-10
	c3.9-8.3,6.8-16.9,8.6-25.8c3.8-18.4,2.6-37.1-1.6-55.3c-4.4-19.2-12.4-37.4-22.1-54.6c-4.8-8.7-10.1-17.1-15.7-25.3
	c-3.8-5.7-7.7-13.5-13.1-18.5c-9.5-14.9-26-25-42.2-31.5c-5.7-2.3-11.6-4.3-17.6-5.9c-8.1-2.2-16.6-3.7-25.1-4.5
	c-8.5,0.8-17,2.3-25.1,4.5c-24.2,6.5-49.9,19.8-63.4,41.7c-3.5,4.5-6.3,9.9-9.2,14.1C78.3,75,73,83.4,68.1,92
	c-9.6,17.2-17.7,35.4-22.1,54.6c-4.2,18.2-5.4,37-1.6,55.3c1.9,8.9,4.7,17.5,8.6,25.8c1.5,3.2,3.3,6.5,5,10c0.3,1.4,0.5,2.8,0.5,4.3
	c0.5,8.5-3.3,15.9-7.3,23.2c-4,7.2-8,14.3-11.4,21.8c-6.7,14.7-12.4,28.5-14.8,44.6c0,0.1,0.1,0.1,0.1,0c4.6-16.6,14.4-31.6,25-45
	c5.6-7.1,12.6-14.6,17.9-22.7c-0.2,0.4-0.3,0.8-0.5,1.2c-0.6,0.9-1.3,1.8-1.9,2.7c-7.6,10-15.2,19.7-21,30.9c-0.5,0.6-1,1.3-1.4,1.9
	c-4.8,6.8-8.1,14.5-9.8,22.7c-1.3,6.5-1.9,13.5-1.8,20.6c-0.2,2.4-1.1,13.6-1.2,16.1c1.4-1.6,18.3-3.3,19.6-5.1
	c17.9-1.4,19.8-15.9,44.9-13c8.8-1.7,14.8,3.8,27.5-5.6c7.9-5.9,9.5-14,14.5-24.7c5.7-12.3,7.3-24.2,7.5-36.8c0-2.5,0-5.1-0.2-7.6
	c-0.1-1.4-0.2-2.8-0.3-4.2c-2.9-2.4-5.7-4.9-8.4-7.6c-12.1-12.2-21.2-27-28.1-42.7c-11.9-27.1-17.1-56.8-19-86.2
	c6.2,4.1,14.5,6,21.5,6.7c4,0.4,8,0.3,12-0.2c0.7,0.1,1.4,0.2,2.1,0.3c1.9,0.2,3.9,0.3,5.8,0.4c16.9,0.6,34.9-3.9,49-12.8
	c0.4-0.2,0.7-0.5,1.1-0.7c7.7-5.3,14.4-14.4,19.7-23.4c-0.7,2.7-1.5,5.5-2.4,8.1c-3.2,9.8-8.3,19.4-17.3,25
	c-0.4,0.2-0.8,0.5-1.2,0.7v0.1c0.4-0.1,0.8-0.3,1.2-0.4c9.3-3.7,16.3-12.6,21.3-21.1c2.6-4.5,4.5-9.2,6-14
	c3.7,6.7,11.6,13.1,15.9,16.5c4,3.1,10.1,6.8,16.8,9.7c11.2,4.8,24.2,7.5,31.7,1.8c-1.7,30.6-6.9,61.6-19.3,89.8
	c-6.9,15.7-16,30.5-28.1,42.7c-2.6,2.7-5.4,5.2-8.3,7.5c-0.1,1.5-0.3,3-0.3,4.5c0,0.3,0,0.5,0,0.8c0,0.1,0,0.1,0,0.2
	c-0.1,1.8-0.1,3.6-0.1,5.4c0.1,12.8,1.7,27.2,12.2,36.2c13.1,11.4,12,6.1,21.8,7.1c14.2,1.4,32.3,4.4,41.1,6
	c16.1,3.1,33.3,7.2,42.4,21.2c2.1,3.3,2.8,7.7,4.9,10.7c0-3.1-1.4-12.1-2.6-14.1c-4.5-11.2-4.5-11.2-5.8-17.7
	c-1.7-8.1-4.9-15.9-9.8-22.7c-0.5-0.6-0.9-1.3-1.4-1.9c-5.8-11.2-13.4-20.9-21-30.9c-0.7-0.9-1.3-1.8-1.9-2.7
	c-0.2-0.4-0.3-0.8-0.5-1.2c5.3,8.1,12.3,15.5,17.9,22.7c10.5,13.4,20.3,28.4,25,45c0,0.1,0.1,0,0.1,0c-2.4-16.1-8-29.9-14.8-44.6
	C320.2,279.6,316.1,272.4,312.1,265.3z"/>
</svg>
